<svg width="44" height="13" viewBox="0 0 44 13" fill="none" xmlns="http://www.w3.org/2000/svg">
<path d="M17.0977 10.1758C15.7773 10.1758 14.6504 9.72656 13.7168 8.82812C12.7871 7.92969 12.3223 6.8418 12.3223 5.56445C12.3223 4.2832 12.7812 3.19336 13.6992 2.29492C14.6172 1.39648 15.7266 0.947266 17.0273 0.947266C17.9961 0.947266 18.875 1.19922 19.6641 1.70312C20.4531 2.20703 21.0234 2.88281 21.375 3.73047H19.3945C19.1523 3.34766 18.8184 3.04297 18.3926 2.81641C17.9668 2.58984 17.5156 2.47656 17.0391 2.47656C16.1836 2.47656 15.457 2.77539 14.8594 3.37305C14.2656 3.9707 13.9688 4.70117 13.9688 5.56445C13.9688 6.42383 14.2676 7.15234 14.8652 7.75C15.4668 8.34766 16.1973 8.64648 17.0566 8.64648C17.9082 8.64648 18.6172 8.35156 19.1836 7.76172C19.4062 7.52344 19.5879 7.26953 19.7285 7H16.0254V5.4707H21.8027V5.56445C21.8027 6.8418 21.3457 7.92969 20.4316 8.82812C19.5176 9.72656 18.4082 10.1758 17.1035 10.1758H17.0977ZM23.8008 10V2.65234H22.1484V1.89062V1.12305H27.0938V1.88477V2.65234H25.4414V10H24.6211H23.8008ZM27.9785 10V1.12305H28.7988H30.334C31.3887 1.12305 32.2051 1.35352 32.7832 1.81445C33.3652 2.27539 33.6562 2.92578 33.6562 3.76562C33.6562 4.71094 33.377 5.42383 32.8184 5.9043C32.2598 6.38477 31.4316 6.625 30.334 6.625H29.6191V10H28.7988H27.9785ZM29.6191 5.0957H30.334C30.8926 5.0957 31.3105 4.99414 31.5879 4.79102C31.8691 4.58789 32.0098 4.2832 32.0098 3.87695C32.0098 3.4707 31.8691 3.16602 31.5879 2.96289C31.3105 2.75586 30.8926 2.65234 30.334 2.65234H29.6191V5.0957ZM38.8828 10.1758C37.5977 10.1758 36.502 9.72656 35.5957 8.82812C34.6934 7.92969 34.2422 6.8418 34.2422 5.56445C34.2422 4.2832 34.6934 3.19336 35.5957 2.29492C36.502 1.39648 37.5977 0.947266 38.8828 0.947266C40.1719 0.947266 41.2676 1.39648 42.1699 2.29492C43.0723 3.19336 43.5234 4.2832 43.5234 5.56445C43.5234 6.8418 43.0723 7.92969 42.1699 8.82812C41.2676 9.72656 40.1719 10.1758 38.8828 10.1758ZM38.8828 8.64648C39.7188 8.64648 40.4258 8.34766 41.0039 7.75C41.5859 7.15234 41.877 6.42383 41.877 5.56445C41.877 4.70117 41.5859 3.9707 41.0039 3.37305C40.4258 2.77539 39.7188 2.47656 38.8828 2.47656C38.0469 2.47656 37.3379 2.77539 36.7559 3.37305C36.1777 3.9707 35.8887 4.70117 35.8887 5.56445C35.8887 6.42383 36.1777 7.15234 36.7559 7.75C37.3379 8.34766 38.0469 8.64648 38.8828 8.64648Z" fill="white"/>
<rect width="11" height="11" rx="2" fill="#1877F2"/>
<path d="M1 6.68619C1 6.37423 1.25079 6.12134 1.56017 6.12134H2.26971C2.57908 6.12134 2.82988 6.37423 2.82988 6.68619V8.56904C2.82988 8.881 2.57908 9.13389 2.26971 9.13389H1.56017C1.25079 9.13389 1 8.881 1 8.56904V6.68619Z" fill="white"/>
<path d="M1.59751 5.53766C1.59751 5.36088 1.73963 5.21757 1.91494 5.21757C2.09025 5.21757 2.23237 5.36088 2.23237 5.53766V9.67992C2.23237 9.85669 2.09025 10 1.91494 10C1.73963 10 1.59751 9.85669 1.59751 9.67992V5.53766Z" fill="white"/>
<path d="M5.78008 5.48117C5.78008 5.16921 6.03088 4.91632 6.34025 4.91632H7.04979C7.35916 4.91632 7.60996 5.16921 7.60996 5.48117V8.30544C7.60996 8.6174 7.35916 8.87029 7.04979 8.87029H6.34025C6.03088 8.87029 5.78008 8.6174 5.78008 8.30544V5.48117Z" fill="white"/>
<path d="M6.37759 4.33264C6.37759 4.15586 6.51971 4.01255 6.69502 4.01255C6.87033 4.01255 7.01245 4.15586 7.01245 4.33264V9.41632C7.01245 9.5931 6.87033 9.7364 6.69502 9.7364C6.51971 9.7364 6.37759 9.5931 6.37759 9.41632V4.33264Z" fill="white"/>
<path d="M3.39004 4.27615C3.39004 3.96419 3.64084 3.7113 3.95021 3.7113H4.65975C4.96912 3.7113 5.21992 3.96419 5.21992 4.27615V7.36402C5.21992 7.67598 4.96912 7.92887 4.65975 7.92887H3.95021C3.64084 7.92887 3.39004 7.67598 3.39004 7.36402V4.27615Z" fill="white"/>
<path d="M3.98755 3.12762C3.98755 2.95084 4.12967 2.80753 4.30498 2.80753C4.48029 2.80753 4.62241 2.95084 4.62241 3.12762V8.55021C4.62241 8.72699 4.48029 8.87029 4.30498 8.87029C4.12967 8.87029 3.98755 8.72699 3.98755 8.55021V3.12762Z" fill="white"/>
<path d="M8.17012 2.43096C8.17012 2.119 8.42092 1.86611 8.73029 1.86611H9.43983C9.74921 1.86611 10 2.119 10 2.43096V6.19665C10 6.50861 9.74921 6.76151 9.43983 6.76151H8.73029C8.42092 6.76151 8.17012 6.50861 8.17012 6.19665V2.43096Z" fill="white"/>
<path d="M8.76764 1.32008C8.76764 1.14331 8.90975 1 9.08506 1C9.26037 1 9.40249 1.14331 9.40249 1.32008V7.38285C9.40249 7.55962 9.26037 7.70293 9.08506 7.70293C8.90975 7.70293 8.76764 7.55962 8.76764 7.38285V1.32008Z" fill="white"/>
</svg>
